<svg width="963" height="759" viewBox="0 0 963 759" fill="none" xmlns="http://www.w3.org/2000/svg">
<path fill-rule="evenodd" clip-rule="evenodd" d="M482.543 63.25C261.495 63.25 82.3364 204.456 82.3364 378.678C82.3364 518.018 196.974 636.263 356.029 678.008C376.052 680.855 383.274 671.146 383.274 662.797C383.274 655.302 382.953 635.441 382.833 609.161C271.486 628.199 247.972 566.847 247.972 566.847C229.836 530.415 203.554 520.706 203.554 520.706C167.241 501.13 206.323 501.573 206.323 501.573C246.528 503.786 267.594 534.083 267.594 534.083C303.305 582.28 361.326 568.365 384.036 560.3C387.688 539.902 398.12 525.987 409.516 518.112C320.679 510.175 227.268 483.104 227.268 362.201C227.268 327.825 242.877 299.615 268.356 277.604C264.303 269.603 250.46 237.504 272.328 194.114C272.328 194.114 305.913 185.607 382.351 226.403C414.997 219.404 448.671 215.831 482.503 215.777C516.336 215.821 550.012 219.394 582.655 226.403C659.133 185.576 692.678 194.114 692.678 194.114C714.546 237.504 700.823 269.603 696.65 277.604C722.33 299.615 737.738 327.793 737.738 362.201C737.738 483.42 644.247 510.048 555.089 517.859C569.334 527.6 582.174 546.828 582.174 576.239C582.174 618.427 581.692 652.455 581.692 662.797C581.692 671.241 588.834 681.044 609.258 677.945C768.233 636.137 882.75 517.986 882.75 378.678C882.75 204.456 703.592 63.25 482.543 63.25Z" fill="#5D58D7"/>
</svg>
