<svg width="356" height="356" viewBox="0 0 356 356" fill="none" xmlns="http://www.w3.org/2000/svg">
<g filter="url(#filter0_di_54_27)">
<path d="M296.667 44.5H59.3333C55.3993 44.5 51.6264 46.0628 48.8446 48.8446C46.0628 51.6264 44.5 55.3993 44.5 59.3333V296.667C44.5 300.601 46.0628 304.374 48.8446 307.155C51.6264 309.937 55.3993 311.5 59.3333 311.5H296.667C300.601 311.5 304.374 309.937 307.155 307.155C309.937 304.374 311.5 300.601 311.5 296.667V59.3333C311.5 55.3993 309.937 51.6264 307.155 48.8446C304.374 46.0628 300.601 44.5 296.667 44.5V44.5ZM123.695 271.999H84.0605V144.58H123.695V271.999ZM103.878 127.181C97.7879 127.181 91.9475 124.762 87.6412 120.456C83.335 116.149 80.9158 110.309 80.9158 104.219C80.9158 98.1291 83.335 92.2886 87.6412 87.9824C91.9475 83.6762 97.7879 81.257 103.878 81.257C109.968 81.257 115.808 83.6762 120.114 87.9824C124.421 92.2886 126.84 98.1291 126.84 104.219C126.84 110.309 124.421 116.149 120.114 120.456C115.808 124.762 109.968 127.181 103.878 127.181V127.181ZM272.014 271.999H232.423V210.04C232.423 195.266 232.156 176.265 211.835 176.265C191.216 176.265 188.087 192.373 188.087 209.002V272.014H148.526V144.595H186.499V162.01H187.048C192.314 151.997 205.249 141.436 224.488 141.436C264.597 141.436 271.999 167.809 271.999 202.134V271.999H272.014Z" fill="#5D58D7"/>
</g>
<defs>
<filter id="filter0_di_54_27" x="-4" y="0" width="364" height="364" filterUnits="userSpaceOnUse" color-interpolation-filters="sRGB">
<feFlood flood-opacity="0" result="BackgroundImageFix"/>
<feColorMatrix in="SourceAlpha" type="matrix" values="0 0 0 0 0 0 0 0 0 0 0 0 0 0 0 0 0 0 127 0" result="hardAlpha"/>
<feOffset dy="4"/>
<feGaussianBlur stdDeviation="2"/>
<feComposite in2="hardAlpha" operator="out"/>
<feColorMatrix type="matrix" values="0 0 0 0 0 0 0 0 0 0 0 0 0 0 0 0 0 0 0.25 0"/>
<feBlend mode="normal" in2="BackgroundImageFix" result="effect1_dropShadow_54_27"/>
<feBlend mode="normal" in="SourceGraphic" in2="effect1_dropShadow_54_27" result="shape"/>
<feColorMatrix in="SourceAlpha" type="matrix" values="0 0 0 0 0 0 0 0 0 0 0 0 0 0 0 0 0 0 127 0" result="hardAlpha"/>
<feOffset dy="4"/>
<feGaussianBlur stdDeviation="2"/>
<feComposite in2="hardAlpha" operator="arithmetic" k2="-1" k3="1"/>
<feColorMatrix type="matrix" values="0 0 0 0 0 0 0 0 0 0 0 0 0 0 0 0 0 0 0.25 0"/>
<feBlend mode="normal" in2="shape" result="effect2_innerShadow_54_27"/>
</filter>
</defs>
</svg>
